<?xml version="1.0" encoding="UTF-8" standalone="no"?>
<!-- Created with Inkscape (http://www.inkscape.org/) -->

<svg
   xmlns:dc="http://purl.org/dc/elements/1.1/"
   xmlns:cc="http://creativecommons.org/ns#"
   xmlns:rdf="http://www.w3.org/1999/02/22-rdf-syntax-ns#"
   xmlns:svg="http://www.w3.org/2000/svg"
   xmlns="http://www.w3.org/2000/svg"
   xmlns:sodipodi="http://sodipodi.sourceforge.net/DTD/sodipodi-0.dtd"
   xmlns:inkscape="http://www.inkscape.org/namespaces/inkscape"
   width="210mm"
   height="297mm"
   viewBox="0 0 210 297"
   version="1.1"
   id="svg1502"
   sodipodi:docname="ikonsoptunna.svg"
   inkscape:version="0.92.4 (5da689c313, 2019-01-14)">
  <defs
     id="defs1496" />
  <sodipodi:namedview
     id="base"
     pagecolor="#ffffff"
     bordercolor="#666666"
     borderopacity="1.0"
     inkscape:pageopacity="0.0"
     inkscape:pageshadow="2"
     inkscape:zoom="1"
     inkscape:cx="-75.714286"
     inkscape:cy="560"
     inkscape:document-units="mm"
     inkscape:current-layer="layer1"
     showgrid="false"
     inkscape:showpageshadow="false"
     showborder="false"
     inkscape:window-width="2560"
     inkscape:window-height="1377"
     inkscape:window-x="-8"
     inkscape:window-y="-8"
     inkscape:window-maximized="1" />
  <metadata
     id="metadata1499">
    <rdf:RDF>
      <cc:Work
         rdf:about="">
        <dc:format>image/svg+xml</dc:format>
        <dc:type
           rdf:resource="http://purl.org/dc/dcmitype/StillImage" />
        <dc:title></dc:title>
      </cc:Work>
    </rdf:RDF>
  </metadata>
  <g
     inkscape:label="Layer 1"
     inkscape:groupmode="layer"
     id="layer1">
    <g
       id="g2175">
      <path
         transform="scale(0.26458333)"
         id="path2075"
         d="M -498.38086 305.76562 C -513.22892 305.76562 -526.56058 317.9086 -525.41992 333.51367 L -499.42188 689.21094 C -498.50776 701.7163 -488.39996 712.96484 -475.00195 712.96484 L -207.00391 712.96484 C -193.60592 712.96484 -183.49028 701.71634 -182.57617 689.21094 L -156.57812 333.51367 C -155.43749 317.90859 -168.76915 305.76564 -183.61719 305.76562 L -498.38086 305.76562 z M -439.20117 349.10352 A 13.229669 13.229669 0 0 1 -425.77344 362.51758 L -425.77344 647.51758 A 13.229669 13.229669 0 1 1 -452.22852 647.51758 L -452.22852 362.51758 A 13.229669 13.229669 0 0 1 -439.20117 349.10352 z M -341.19922 350.10156 A 13.229669 13.229669 0 0 1 -327.77148 363.52148 L -327.77148 648.52148 A 13.229669 13.229669 0 1 1 -354.22656 648.52148 L -354.22656 363.52148 A 13.229669 13.229669 0 0 1 -341.19922 350.10156 z M -243.19727 352.10156 A 13.229669 13.229669 0 0 1 -229.76953 365.52148 L -229.76953 650.52148 A 13.229669 13.229669 0 1 1 -256.22461 650.52148 L -256.22461 365.52148 A 13.229669 13.229669 0 0 1 -243.19727 352.10156 z "
         style="color:#000000;font-style:normal;font-variant:normal;font-weight:normal;font-stretch:normal;font-size:medium;line-height:normal;font-family:sans-serif;font-variant-ligatures:normal;font-variant-position:normal;font-variant-caps:normal;font-variant-numeric:normal;font-variant-alternates:normal;font-feature-settings:normal;text-indent:0;text-align:start;text-decoration:none;text-decoration-line:none;text-decoration-style:solid;text-decoration-color:#000000;letter-spacing:normal;word-spacing:normal;text-transform:none;writing-mode:lr-tb;direction:ltr;text-orientation:mixed;dominant-baseline:auto;baseline-shift:baseline;text-anchor:start;white-space:normal;shape-padding:0;clip-rule:nonzero;display:inline;overflow:visible;visibility:visible;opacity:1;isolation:auto;mix-blend-mode:normal;color-interpolation:sRGB;color-interpolation-filters:linearRGB;solid-color:#000000;solid-opacity:1;vector-effect:none;fill:#000000;fill-opacity:1;fill-rule:nonzero;stroke:none;stroke-width:18.89763832;stroke-linecap:butt;stroke-linejoin:miter;stroke-miterlimit:4;stroke-dasharray:none;stroke-dashoffset:0;stroke-opacity:1;color-rendering:auto;image-rendering:auto;shape-rendering:auto;text-rendering:auto;enable-background:accumulate" />
      <path
         id="rect2052"
         d="m -110.09561,55.424006 c -3.85736,0 -7.03781,3.179932 -7.03781,7.037297 v 3.988388 h -17.19275 c -3.14709,0 -5.75623,2.609146 -5.75623,5.756237 v 0.768427 c 0,3.147092 2.60914,5.756238 5.75623,5.756238 h 88.207023 c 3.147081,0 5.756238,-2.609151 5.756238,-5.756238 v -0.768427 c 0,-3.147083 -2.609157,-5.756237 -5.756238,-5.756237 h -17.192749 v -3.988388 c 0,-3.857365 -3.180448,-7.037297 -7.037814,-7.037297 z m 0,4.845701 h 39.7459 c 1.256657,0 2.192113,0.934939 2.192113,2.191596 v 3.988388 h -44.130123 v -3.988388 c 0,-1.256657 0.93547,-2.191596 2.19211,-2.191596 z"
         style="color:#000000;font-style:normal;font-variant:normal;font-weight:normal;font-stretch:normal;font-size:medium;line-height:normal;font-family:sans-serif;font-variant-ligatures:normal;font-variant-position:normal;font-variant-caps:normal;font-variant-numeric:normal;font-variant-alternates:normal;font-feature-settings:normal;text-indent:0;text-align:start;text-decoration:none;text-decoration-line:none;text-decoration-style:solid;text-decoration-color:#000000;letter-spacing:normal;word-spacing:normal;text-transform:none;writing-mode:lr-tb;direction:ltr;text-orientation:mixed;dominant-baseline:auto;baseline-shift:baseline;text-anchor:start;white-space:normal;shape-padding:0;clip-rule:nonzero;display:inline;overflow:visible;visibility:visible;opacity:1;isolation:auto;mix-blend-mode:normal;color-interpolation:sRGB;color-interpolation-filters:linearRGB;solid-color:#000000;solid-opacity:1;vector-effect:none;fill:#000000;fill-opacity:1;fill-rule:nonzero;stroke:none;stroke-width:4.84571552;stroke-linecap:butt;stroke-linejoin:miter;stroke-miterlimit:4;stroke-dasharray:none;stroke-dashoffset:0;stroke-opacity:1;color-rendering:auto;image-rendering:auto;shape-rendering:auto;text-rendering:auto;enable-background:accumulate"
         inkscape:connector-curvature="0" />
    </g>
  </g>
</svg>
